<?xml version="1.0" encoding="UTF-8"?>
<svg version="1.1" xmlns="http://www.w3.org/2000/svg" width="512" height="512">
<path d="M0 0 C3.78468308 0.00913967 7.56929537 -0.0049629 11.35396385 -0.01591969 C18.74735063 -0.03361541 26.14057409 -0.02990513 33.53396702 -0.01826912 C39.54795409 -0.00919959 45.56189571 -0.00802594 51.57588768 -0.01236439 C52.43501298 -0.01297732 53.29413828 -0.01359025 54.17929769 -0.01422176 C55.92512545 -0.01550078 57.67095321 -0.01679764 59.41678095 -0.01811212 C75.75000302 -0.02949171 92.08313497 -0.01644551 108.41634226 0.00508934 C122.40133184 0.02295794 136.38618857 0.01985309 150.37117577 0.0014143 C166.64984253 -0.02003889 182.92843052 -0.02839332 199.20710945 -0.01613665 C200.94616507 -0.01486258 202.68522071 -0.01360509 204.42427635 -0.01236439 C205.70742316 -0.01143873 205.70742316 -0.01143873 207.01649213 -0.01049438 C213.01645327 -0.0070548 219.01636403 -0.01283964 225.01631737 -0.0222826 C232.33802381 -0.03355357 239.65955893 -0.03035623 246.98124599 -0.00915962 C250.70992575 0.00128277 254.43832089 0.00559065 258.16699791 -0.00775623 C281.29658944 -0.08356749 301.15107338 0.51631158 318.78914452 17.31977367 C319.88355858 18.41032055 319.88355858 18.41032055 321.00008202 19.52289867 C321.56469139 20.06430492 322.12930077 20.60571117 322.71101952 21.16352367 C333.90010372 32.88542141 336.30328848 47.72171692 336.27423668 63.20284557 C336.27869316 64.70048967 336.28400855 66.19813141 336.2901054 67.69576973 C336.30424688 71.79892689 336.30594943 75.90200816 336.30550849 80.0051862 C336.30716013 84.43551924 336.32023317 88.86582133 336.33170128 93.29613781 C336.35452433 102.97818021 336.36246909 112.66020066 336.36752772 122.34226632 C336.37078809 128.39221061 336.37731265 134.44214857 336.38452911 140.49208927 C336.40409207 157.25535311 336.42049788 174.01861107 336.42340565 190.78188705 C336.42359322 191.85404315 336.42378079 192.92619925 336.42397404 194.03084492 C336.42434028 196.20420325 336.42470398 198.37756157 336.42506515 200.5509199 C336.42524796 201.62972221 336.42543077 202.70852452 336.42561913 203.82001781 C336.42588995 205.44020548 336.42588995 205.44020548 336.42616624 207.0931242 C336.42970643 224.58742455 336.45672047 242.08160168 336.49411701 259.57585932 C336.5322382 277.55355888 336.55156341 295.53119738 336.55186516 313.50893825 C336.55244889 323.5960718 336.56088669 333.68305838 336.58986282 343.770154 C336.61442778 352.3609235 336.62162518 360.95149243 336.6066153 369.5422876 C336.59946712 373.92094942 336.60021291 378.29921563 336.62302589 382.6778326 C336.64375821 386.69580068 336.64088442 390.71307257 336.62015105 394.73103427 C336.61668315 396.17520314 336.62145004 397.61942372 336.63585549 399.06352491 C336.79778597 416.43287928 331.32189258 430.89092925 319.43758202 443.71039867 C301.22153445 460.99228995 279.70918814 461.13066436 256.00016403 461.04579735 C252.21548095 461.03665767 248.43086866 461.05076025 244.64620018 461.06171703 C237.2528134 461.07941276 229.85958994 461.07570248 222.46619701 461.06406647 C216.45220994 461.05499694 210.43826832 461.05382328 204.42427635 461.05816174 C203.56515105 461.05877467 202.70602575 461.0593876 201.82086635 461.06001911 C200.07503858 461.06129813 198.32921082 461.06259499 196.58338308 461.06390947 C180.25016102 461.07528906 163.91702906 461.06224285 147.58382177 461.04070801 C133.59883219 461.02283941 119.61397546 461.02594426 105.62898827 461.04438305 C89.3503215 461.06583624 73.07173351 461.07419067 56.79305458 461.06193399 C55.05399896 461.06065993 53.31494333 461.05940244 51.57588768 461.05816174 C50.29274087 461.05723608 50.29274087 461.05723608 48.9836719 461.05629173 C42.98371076 461.05285215 36.9838 461.05863699 30.98384666 461.06807995 C23.66214022 461.07935092 16.3406051 461.07615358 9.01891804 461.05495697 C5.29023828 461.04451458 1.56184314 461.04020669 -2.16683388 461.05355358 C-25.30289107 461.12938604 -45.13210514 460.52228388 -62.78507423 443.73383617 C-63.88142189 442.63942211 -63.88142189 442.63942211 -64.99991798 441.52289867 C-65.57612892 440.9582893 -66.15233986 440.39367992 -66.74601173 439.81196117 C-77.77387608 428.06800174 -80.45711142 413.05623556 -80.39432716 397.60244274 C-80.39922289 396.10307062 -80.40541584 394.60370226 -80.41278505 393.10434026 C-80.42912167 389.00566279 -80.4268795 384.90717846 -80.42141008 380.80847991 C-80.41873207 376.37953744 -80.43328624 371.95064555 -80.44550514 367.52172375 C-80.46652976 358.85252389 -80.47110166 350.18339095 -80.46931726 341.5141686 C-80.46800798 334.46408868 -80.47182225 327.41402959 -80.47924232 320.36395359 C-80.4813416 318.33066009 -80.4834392 316.29736658 -80.48553514 314.26407307 C-80.48657867 313.25193087 -80.4876222 312.23978867 -80.48869735 311.19697549 C-80.50758822 292.06637987 -80.50655324 272.93582261 -80.49972802 253.80522152 C-80.49415512 236.32397637 -80.5149693 218.84287789 -80.54808849 201.36166701 C-80.58186584 183.3929382 -80.59698867 165.42427956 -80.59237146 147.45551842 C-80.59013065 137.37512899 -80.59531296 127.29487506 -80.62026405 117.21451283 C-80.64132962 108.63110267 -80.64481731 100.04790229 -80.62596446 91.46448336 C-80.61683841 87.08986446 -80.61556674 82.71563615 -80.63632011 78.34104824 C-80.65515215 74.32685066 -80.65039167 70.3133602 -80.6277743 66.29918852 C-80.62361908 64.8564295 -80.62768349 63.41361495 -80.64137024 61.97091488 C-80.79471354 44.60792241 -75.31731501 30.15010727 -63.43741798 17.33539867 C-45.22137042 0.05350739 -23.7090241 -0.08486701 0 0 Z M63.37117577 86.85883617 C62.4960685 87.73818829 61.62096123 88.6175404 60.71933556 89.52353954 C57.95156914 92.307973 55.1944728 95.10270101 52.43758202 97.89789867 C50.55306692 99.79918555 48.66615575 101.69807283 46.77937889 103.59711742 C42.17825798 108.23114865 37.58582978 112.8736566 33.00008202 117.52289867 C29.26707864 114.37194221 25.57910306 111.23723366 22.17586327 107.72602367 C21.22163475 106.75342602 21.22163475 106.75342602 20.24812889 105.76117992 C18.94425155 104.42177818 17.64220276 103.08059423 16.34187889 101.73774242 C15.39345116 100.77287914 15.39345116 100.77287914 14.42586327 99.78852367 C13.86294579 99.20876781 13.30002831 98.62901196 12.72005272 98.03168774 C8.82089054 94.61127294 5.35555099 94.07330086 0.31258202 94.21430492 C-4.17153827 94.8126926 -7.34960159 96.63821783 -10.32023048 100.03071117 C-12.92803261 103.95153255 -13.46296882 107.56823719 -13.53116798 112.21430492 C-12.06536006 118.5841026 -6.49998669 123.32997775 -2.03898048 127.78461742 C-1.03669914 128.79332645 -1.03669914 128.79332645 -0.01416969 129.82241344 C1.39363564 131.23593722 2.80403579 132.64688093 4.21687889 134.05536938 C6.37007943 136.20540345 8.50959427 138.36843941 10.64851952 140.5326643 C12.02270828 141.90912572 13.39768229 143.28480372 14.77351952 144.65961742 C15.72537636 145.62528889 15.72537636 145.62528889 16.69646263 146.61046886 C21.8619713 151.72299554 26.24457649 154.77909277 33.77742577 155.01899242 C39.72786974 153.69086169 44.231938 149.66028036 48.39705467 145.43476391 C48.88747749 144.94156658 49.37790031 144.44836926 49.88318443 143.94022655 C51.48383401 142.32740796 53.07376239 140.70443039 54.66414452 139.08149242 C55.78478428 137.95016071 56.90624829 136.81964492 58.02849388 135.68990612 C60.96903134 132.72668055 63.90128814 129.75541458 66.8309536 126.7814436 C71.52478283 122.01719495 76.2262476 117.26059058 80.93698311 112.51305866 C82.57498536 110.85842231 84.20638273 109.19747001 85.83739281 107.53594494 C86.84529437 106.51757863 87.85344954 105.49946323 88.86189842 104.48163891 C89.73569145 103.59435604 90.60948448 102.70707317 91.50975609 101.79290295 C94.00008202 99.52289867 94.00008202 99.52289867 96.70403099 97.91219616 C100.22671679 95.78068494 100.85582946 93.40064344 102.00008202 89.52289867 C102.2743641 83.83977387 100.60846251 79.95605186 97.00008202 75.52289867 C93.119493 72.11268408 89.42708566 71.03059622 84.22174644 71.12406445 C75.88405036 72.62085151 69.00967162 81.11496228 63.37117577 86.85883617 Z M137.00008202 108.52289867 C133.97451804 113.06124464 133.29940639 117.1543418 134.00008202 122.52289867 C135.88634943 127.86911946 138.97754616 130.85787965 144.00008202 133.52289867 C147.2425809 134.32253321 150.26969937 134.65050958 153.60292625 134.66334057 C154.49710762 134.66905071 155.39128899 134.67476086 156.31256676 134.68064404 C157.28098 134.68176189 158.24939323 134.68287975 159.24715233 134.68403149 C160.79201065 134.69147884 160.79201065 134.69147884 162.36807823 134.69907665 C165.77146132 134.71366789 169.1747978 134.72049538 172.57820702 134.72602367 C174.94846663 134.73177779 177.31872623 134.73753549 179.68898582 134.74329662 C184.65873493 134.75379808 189.62846791 134.7596463 194.59822655 134.76313305 C200.95449748 134.76861478 207.31055388 134.79263981 213.66675758 134.821105 C218.56364622 134.83976377 223.46048353 134.84493873 228.35740471 134.84646893 C230.70007309 134.84948884 233.0427407 134.85749494 235.38537407 134.87065411 C238.66889148 134.88778136 241.95188915 134.8858178 245.23543358 134.87934399 C246.19574989 134.88855877 247.15606621 134.89777355 248.14548302 134.90726757 C254.49330479 134.86822447 261.66562171 134.5006349 266.62600136 130.0709219 C270.67793758 125.32175572 271.35608404 122.12738773 271.27742577 116.06196117 C270.86631758 112.29829465 269.51721842 110.3049968 267.00008202 107.52289867 C261.92819699 103.53013812 257.74337595 102.40688572 251.39723778 102.38245678 C250.50305641 102.37674664 249.60887505 102.37103649 248.68759727 102.36515331 C247.71918404 102.36403545 246.7507708 102.36291759 245.7530117 102.36176586 C244.72310616 102.35680096 243.69320061 102.35183605 242.6320858 102.3467207 C239.22870271 102.33212946 235.82536623 102.32530197 232.42195702 102.31977367 C230.0516974 102.31401956 227.6814378 102.30826186 225.31117821 102.30250072 C220.3414291 102.29199927 215.37169613 102.28615105 210.40193748 102.2826643 C204.04566656 102.27718257 197.68961015 102.25315754 191.33340645 102.22469234 C186.43651781 102.20603358 181.5396805 102.20085862 176.64275932 102.19932842 C174.30009094 102.19630851 171.95742333 102.18830241 169.61478996 102.17514324 C166.33127255 102.15801599 163.04827488 102.15997955 159.76473045 102.16645336 C158.80441414 102.15723858 157.84409782 102.1480238 156.85468102 102.13852978 C149.63556279 102.1829319 141.9993968 102.76193185 137.00008202 108.52289867 Z M65.03133202 202.10102367 C63.64996056 203.49088482 63.64996056 203.49088482 62.2406826 204.90882397 C59.81183602 207.35282385 57.39525292 209.80859787 54.98116112 212.26716137 C52.50788682 214.78161274 50.02301662 217.28454853 47.53914452 219.78852367 C42.68148303 224.68887362 37.83670034 229.60178036 33.00008202 234.52289867 C29.4129485 232.83992971 27.1493633 230.87851068 24.37508202 228.02289867 C23.50367577 227.13602367 22.63226952 226.24914867 21.73445702 225.33539867 C19.91154035 223.46039867 18.08862368 221.58539867 16.26570702 219.71039867 C15.39430077 218.82352367 14.52289452 217.93664867 13.62508202 217.02289867 C12.83359764 216.20821117 12.04211327 215.39352367 11.22664452 214.55414867 C6.82781361 210.54118013 3.27497144 210.07841582 -2.53116798 210.20649242 C-7.32277287 210.82060634 -9.97679973 213.52743227 -13.31241798 216.77289867 C-15.43482927 220.23164299 -16.38277332 223.49943711 -15.99991798 227.52289867 C-13.82913307 234.19711939 -9.92368983 238.15375724 -4.97257423 243.01117992 C-4.18724815 243.79558956 -3.40192207 244.5799992 -2.59279823 245.38817883 C-0.93741804 247.0375374 0.7227999 248.68205315 2.38753319 250.32197094 C4.93604545 252.83388417 7.46810225 255.36152163 9.99812889 257.8920393 C11.61111918 259.49520118 13.22502068 261.09744689 14.83992577 262.69867992 C15.59732552 263.45385403 16.35472527 264.20902813 17.13507652 264.9870863 C17.84583839 265.68508846 18.55660027 266.38309063 19.28890038 267.10224438 C19.91050545 267.71622585 20.53211052 268.33020733 21.17255211 268.9627943 C24.92395651 272.16524936 27.86366869 272.75615095 32.80476952 272.88617992 C38.73742346 271.90444182 42.74578475 268.18782648 46.77351952 264.00727367 C47.30095757 263.47321911 47.82839561 262.93916454 48.37181664 262.38892651 C50.04689677 260.6906033 51.71145811 258.98243899 53.37508202 257.27289867 C55.56651451 255.03468999 57.76229069 252.80081421 59.96101952 250.56977367 C60.49433891 250.02795452 61.02765831 249.48613537 61.5771389 248.92789745 C64.87821028 245.59466129 68.28148742 242.46423284 71.85506248 239.4232893 C76.47128696 235.33352248 80.80758435 230.94042246 85.1748867 226.58832836 C86.8856476 224.88739377 88.60679659 223.19742126 90.32820702 221.50727367 C91.42521582 220.41678599 92.52159315 219.32566262 93.61726952 218.23383617 C94.12869499 217.7347575 94.64012047 217.23567883 95.16704369 216.72147655 C99.12840024 212.73506782 100.80573336 209.66073388 101.31258202 204.08539867 C100.85933442 198.91837608 99.39022477 195.83987602 95.62508202 192.27289867 C82.89391763 183.78545575 74.08753999 192.83172601 65.03133202 202.10102367 Z M136.65336418 226.13830853 C133.5773381 230.57163211 133.05191885 235.27448032 134.00008202 240.52289867 C136.70187665 245.82642148 140.29505097 249.62122166 146.00008202 251.52289867 C147.53460956 251.61815875 149.07291638 251.65778177 150.6103878 251.66334057 C151.55664024 251.66905071 152.50289268 251.67476086 153.47781944 251.68064404 C155.03245148 251.68232082 155.03245148 251.68232082 156.61849022 251.68403149 C157.71144402 251.68899639 158.80439781 251.6939613 159.93047142 251.69907665 C163.55394172 251.71370745 167.17736825 251.72050182 170.80086327 251.72602367 C173.31568974 251.73177435 175.8305162 251.73753209 178.34534264 251.74329662 C182.94740487 251.75246505 187.54945452 251.75876431 192.15152484 251.76179338 C198.91845334 251.76627216 205.68517966 251.78381293 212.45204669 251.81279397 C218.31839409 251.83704349 224.18467421 251.84473907 230.05106735 251.84646893 C232.54414216 251.84949718 235.03721607 251.85753147 237.53025818 251.87065411 C241.0181581 251.8877028 244.50556557 251.88583693 247.99349022 251.87934399 C249.53901321 251.89316616 249.53901321 251.89316616 251.1157589 251.90726757 C258.13252806 251.86633642 262.4355166 250.80251237 267.81258202 246.02289867 C271.3736239 241.95313652 271.3490595 238.21640216 271.27351952 233.02680492 C270.86010762 229.24113315 269.57161469 227.29224155 267.00008202 224.52289867 C260.96411087 220.16096347 256.07887801 219.94829274 248.75984764 220.00532055 C247.64840889 219.99831127 246.53697014 219.99130199 245.39185143 219.98408031 C241.72975506 219.96652168 238.06843581 219.97811634 234.40633202 219.99164867 C231.85477615 219.98895317 229.30322129 219.98507026 226.75166893 219.98005199 C221.40874549 219.97415979 216.06609879 219.9823277 210.72322655 220.0014143 C204.55926704 220.02318079 198.39583689 220.01612844 192.2318902 219.99410868 C186.28541023 219.97372166 180.33909374 219.97594031 174.39258385 219.98763561 C171.86964404 219.99030089 169.3466907 219.98704019 166.82376671 219.9777174 C163.29558773 219.96754062 159.76842019 219.9830706 156.24031639 220.00532055 C155.20114571 219.99722363 154.16197502 219.9891267 153.09131432 219.98078442 C146.48184171 220.05786803 141.14650243 220.74871644 136.65336418 226.13830853 Z M63.37117577 320.85883617 C62.4960685 321.73818829 61.62096123 322.6175404 60.71933556 323.52353954 C57.95156914 326.307973 55.1944728 329.10270101 52.43758202 331.89789867 C50.55306692 333.79918555 48.66615575 335.69807283 46.77937889 337.59711742 C42.17825798 342.23114865 37.58582978 346.8736566 33.00008202 351.52289867 C29.64181744 349.93534747 27.50046039 348.224007 24.91805077 345.53071117 C24.15041405 344.74309399 23.38277733 343.9554768 22.59187889 343.14399242 C20.99855637 341.4898363 19.40738151 339.83360862 17.81844139 338.17524242 C10.85772341 330.93814434 10.85772341 330.93814434 1.77742577 327.02680492 C-4.21692822 327.21770792 -8.10879616 328.52671452 -12.24991798 332.89789867 C-15.41146204 337.64021476 -16.27363697 340.5768758 -15.67960548 346.36274242 C-13.66631674 352.76129804 -8.4121859 357.40448335 -3.78507423 362.00336742 C-2.74594131 363.04537052 -2.74594131 363.04537052 -1.68581581 364.10842419 C-0.22664864 365.56894678 1.23502498 367.02696908 2.69905663 368.48261547 C4.93389863 370.70673297 7.15785244 372.94133728 9.38094139 375.17719555 C10.80412857 376.59906134 12.22793591 378.02030671 13.65242577 379.44086742 C14.31403206 380.10652218 14.97563835 380.77217693 15.65729332 381.45800304 C22.16844825 387.95767337 22.16844825 387.95767337 30.87508202 389.96039867 C31.67687889 389.97973461 32.47867577 389.99907055 33.30476952 390.01899242 C39.56202778 388.86729416 44.13056815 384.76549635 48.48885155 380.37470531 C48.98902794 379.874967 49.48920433 379.37522869 50.00453758 378.86034679 C51.63788025 377.22493323 53.26036118 375.57918708 54.88289452 373.93305492 C56.02610393 372.78423939 57.16998558 371.63609246 58.31450462 370.48858166 C61.3145433 367.4771399 64.30547012 364.45680696 67.29451561 361.43445873 C70.33026262 358.3680425 73.37448576 355.31006746 76.41805077 352.2514143 C81.77607106 346.86475862 87.12662878 341.47078851 92.47179222 336.07137585 C94.21597753 334.31326392 95.97325947 332.56808173 97.7410183 330.83367443 C100.69577118 327.81128455 101.89295763 325.7065881 102.10164452 321.45258617 C101.86167397 316.00710077 100.33169881 312.91691899 96.66805077 308.93305492 C92.87569035 305.72686731 89.42050999 304.91853334 84.53473473 305.11405468 C76.00830871 306.48938237 69.11760152 315.00501528 63.37117577 320.85883617 Z M138.35555077 342.05805492 C134.20421948 347.48671891 133.22185706 350.74122408 134.00008202 357.52289867 C135.57137825 362.38823762 138.31603369 365.26564197 142.83682823 367.7100172 C147.17018016 369.33835203 151.6663784 369.07611563 156.24031639 369.0404768 C157.90747452 369.05099072 157.90747452 369.05099072 159.60831261 369.06171703 C163.27040898 369.07927567 166.93172822 369.06768101 170.59383202 369.05414867 C173.14538788 369.05684418 175.69694275 369.06072708 178.2484951 369.06574535 C183.59141854 369.07163756 188.93406525 369.06346965 194.27693748 369.04438305 C200.44089699 369.02261656 206.60432714 369.0296689 212.76827383 369.05168867 C218.7147538 369.07207569 224.66107029 369.06985704 230.60758018 369.05816174 C233.13051999 369.05549646 235.65347334 369.05875715 238.17639732 369.06807995 C241.7045763 369.07825673 245.23174384 369.06272675 248.75984764 369.0404768 C249.79901833 369.04857372 250.83818901 369.05667065 251.90884972 369.06501293 C258.15703904 368.99214282 261.90148214 368.20743621 267.00008202 364.52289867 C270.32125047 360.94625573 271.26756034 358.22808981 271.43758202 353.46039867 C271.20801785 348.51366109 270.20026996 345.63291498 266.57039452 342.15180492 C262.54579192 338.61776334 259.65439665 337.40149125 254.38977623 337.38245678 C253.44352379 337.37674664 252.49727135 337.37103649 251.52234459 337.36515331 C249.96771255 337.36347652 249.96771255 337.36347652 248.38167381 337.36176586 C247.28872002 337.35680096 246.19576622 337.35183605 245.06969261 337.3467207 C241.44622231 337.3320899 237.82279578 337.32529553 234.19930077 337.31977367 C231.68447429 337.314023 229.16964784 337.30826525 226.6548214 337.30250072 C222.05275917 337.2933323 217.45070951 337.28703304 212.84863919 337.28400397 C206.08171069 337.27952519 199.31498437 337.26198442 192.54811734 337.23300338 C186.68176994 337.20875386 180.81548982 337.20105827 174.94909668 337.19932842 C172.45602188 337.19630017 169.96294796 337.18826588 167.46990585 337.17514324 C163.98200593 337.15809455 160.49459847 337.15996042 157.00667381 337.16645336 C155.97632515 337.15723858 154.94597649 337.1480238 153.88440514 337.13852978 C147.74720776 337.1743301 143.05135922 337.67455677 138.35555077 342.05805492 Z " fill="#324260" transform="translate(127.99991798400879,25.47710132598877)"/>
</svg>
